G75*
G70*
%OFA0B0*%
%FSLAX24Y24*%
%IPPOS*%
%LPD*%
%AMOC8*
5,1,8,0,0,1.08239X$1,22.5*
%
%ADD10C,0.0000*%
%ADD11C,0.0100*%
%ADD12R,0.0300X0.0200*%
%ADD13R,0.0150X0.0410*%
%ADD14R,0.0230X0.0400*%
%ADD15R,0.0800X0.0260*%
%ADD16R,0.0260X0.0800*%
%ADD17R,0.0169X0.0110*%
%ADD18R,0.0110X0.0169*%
%ADD19C,0.1600*%
%ADD20C,0.0080*%
%ADD21C,0.0160*%
%ADD22R,0.0396X0.0396*%
%ADD23C,0.0200*%
D10*
X000162Y000162D02*
X000162Y020159D01*
X020133Y020159D01*
X020133Y000162D01*
X000162Y000162D01*
D11*
X000150Y010162D02*
X000162Y010653D01*
X000198Y011143D01*
X000258Y011631D01*
X000342Y012115D01*
X000450Y012595D01*
X000581Y013068D01*
X000735Y013535D01*
X000912Y013993D01*
X001111Y014443D01*
X001332Y014882D01*
X001574Y015309D01*
X001837Y015724D01*
X002120Y016126D01*
X002423Y016514D01*
X002744Y016886D01*
X003082Y017242D01*
X003438Y017580D01*
X003810Y017901D01*
X004198Y018204D01*
X004600Y018487D01*
X005015Y018750D01*
X005442Y018992D01*
X005881Y019213D01*
X006331Y019412D01*
X006789Y019589D01*
X007256Y019743D01*
X007729Y019874D01*
X008209Y019982D01*
X008693Y020066D01*
X009181Y020126D01*
X009671Y020162D01*
X010162Y020174D01*
X010653Y020162D01*
X011143Y020126D01*
X011631Y020066D01*
X012115Y019982D01*
X012595Y019874D01*
X013068Y019743D01*
X013535Y019589D01*
X013993Y019412D01*
X014443Y019213D01*
X014882Y018992D01*
X015309Y018750D01*
X015724Y018487D01*
X016126Y018204D01*
X016514Y017901D01*
X016886Y017580D01*
X017242Y017242D01*
X017580Y016886D01*
X017901Y016514D01*
X018204Y016126D01*
X018487Y015724D01*
X018750Y015309D01*
X018992Y014882D01*
X019213Y014443D01*
X019412Y013993D01*
X019589Y013535D01*
X019743Y013068D01*
X019874Y012595D01*
X019982Y012115D01*
X020066Y011631D01*
X020126Y011143D01*
X020162Y010653D01*
X020174Y010162D01*
X020162Y009671D01*
X020126Y009181D01*
X020066Y008693D01*
X019982Y008209D01*
X019874Y007729D01*
X019743Y007256D01*
X019589Y006789D01*
X019412Y006331D01*
X019213Y005881D01*
X018992Y005442D01*
X018750Y005015D01*
X018487Y004600D01*
X018204Y004198D01*
X017901Y003810D01*
X017580Y003438D01*
X017242Y003082D01*
X016886Y002744D01*
X016514Y002423D01*
X016126Y002120D01*
X015724Y001837D01*
X015309Y001574D01*
X014882Y001332D01*
X014443Y001111D01*
X013993Y000912D01*
X013535Y000735D01*
X013068Y000581D01*
X012595Y000450D01*
X012115Y000342D01*
X011631Y000258D01*
X011143Y000198D01*
X010653Y000162D01*
X010162Y000150D01*
X009671Y000162D01*
X009181Y000198D01*
X008693Y000258D01*
X008209Y000342D01*
X007729Y000450D01*
X007256Y000581D01*
X006789Y000735D01*
X006331Y000912D01*
X005881Y001111D01*
X005442Y001332D01*
X005015Y001574D01*
X004600Y001837D01*
X004198Y002120D01*
X003810Y002423D01*
X003438Y002744D01*
X003082Y003082D01*
X002744Y003438D01*
X002423Y003810D01*
X002120Y004198D01*
X001837Y004600D01*
X001574Y005015D01*
X001332Y005442D01*
X001111Y005881D01*
X000912Y006331D01*
X000735Y006789D01*
X000581Y007256D01*
X000450Y007729D01*
X000342Y008209D01*
X000258Y008693D01*
X000198Y009181D01*
X000162Y009671D01*
X000150Y010162D01*
D12*
X009812Y010562D03*
D13*
X009837Y010567D03*
D14*
X009877Y010562D03*
D15*
X008952Y010412D03*
X008952Y010912D03*
X008952Y011412D03*
X008952Y011912D03*
X008952Y012412D03*
X008952Y012912D03*
X008952Y013412D03*
X008952Y013912D03*
X011372Y013912D03*
X011372Y013412D03*
X011372Y012912D03*
X011372Y012412D03*
X011372Y011912D03*
X011372Y011412D03*
X011372Y010912D03*
X011372Y010412D03*
D16*
X011412Y009372D03*
X011912Y009372D03*
X010912Y009372D03*
X010412Y009372D03*
X009912Y009372D03*
X009412Y009372D03*
X008912Y009372D03*
X008412Y009372D03*
X008412Y006952D03*
X008912Y006952D03*
X009412Y006952D03*
X009912Y006952D03*
X010412Y006952D03*
X010912Y006952D03*
X011412Y006952D03*
X011912Y006952D03*
D17*
X010412Y005763D03*
X010412Y005562D03*
X009915Y005562D03*
X009915Y005763D03*
X009412Y005763D03*
X009412Y005562D03*
X008912Y005562D03*
X008912Y005763D03*
X008412Y005763D03*
X008412Y005562D03*
X007662Y005562D03*
X007662Y005763D03*
X008662Y015212D03*
X008662Y015413D03*
D18*
X007763Y013914D03*
X007562Y013914D03*
X007562Y013412D03*
X007763Y013412D03*
X007763Y012913D03*
X007562Y012913D03*
X007562Y012412D03*
X007763Y012412D03*
X007763Y011912D03*
X007562Y011912D03*
X007562Y011413D03*
X007763Y011413D03*
X007763Y010913D03*
X007562Y010913D03*
X012762Y006162D03*
X012963Y006162D03*
X015162Y009462D03*
X015363Y009462D03*
D19*
X018052Y006467D03*
X016673Y004370D03*
X014786Y002772D03*
X012559Y001773D03*
X010162Y001444D03*
X007766Y001773D03*
X005539Y002772D03*
X003651Y004370D03*
X002273Y006467D03*
X001524Y008964D03*
X001524Y011461D03*
X002273Y013858D03*
X003721Y016055D03*
X005539Y017553D03*
X007766Y018552D03*
X010162Y018881D03*
X012559Y018552D03*
X014786Y017553D03*
X016674Y015955D03*
X018052Y013858D03*
X018801Y011461D03*
X018801Y008964D03*
D20*
X018273Y008131D02*
X019556Y008131D01*
X019582Y008146D02*
X019702Y008249D01*
X019804Y008369D01*
X019886Y008503D01*
X019946Y008649D01*
X019983Y008802D01*
X019989Y008960D01*
X019970Y009116D01*
X019927Y009268D01*
X019861Y009411D01*
X019773Y009542D01*
X019666Y009657D01*
X019542Y009755D01*
X019405Y009831D01*
X019257Y009886D01*
X019102Y009916D01*
X017510Y009896D01*
X017609Y009789D01*
X017689Y009667D01*
X017749Y009534D01*
X017787Y009393D01*
X017803Y009248D01*
X017794Y009102D01*
X017763Y008959D01*
X017709Y008824D01*
X017635Y008698D01*
X017541Y008586D01*
X017431Y008491D01*
X017307Y008414D01*
X018835Y007966D01*
X018992Y007954D01*
X019149Y007966D01*
X019302Y008003D01*
X019448Y008064D01*
X019582Y008146D01*
X019655Y008209D02*
X018005Y008209D01*
X017737Y008288D02*
X019735Y008288D01*
X019801Y008366D02*
X017469Y008366D01*
X017357Y008445D02*
X019850Y008445D01*
X019894Y008523D02*
X017468Y008523D01*
X017554Y008602D02*
X019927Y008602D01*
X019954Y008680D02*
X017620Y008680D01*
X017671Y008759D02*
X019972Y008759D01*
X019984Y008837D02*
X017715Y008837D01*
X017746Y008916D02*
X019987Y008916D01*
X019985Y008994D02*
X017771Y008994D01*
X017788Y009073D02*
X019975Y009073D01*
X019960Y009151D02*
X017797Y009151D01*
X017802Y009230D02*
X019938Y009230D01*
X019908Y009308D02*
X017796Y009308D01*
X017788Y009387D02*
X019872Y009387D01*
X019824Y009465D02*
X017768Y009465D01*
X017745Y009544D02*
X019771Y009544D01*
X019699Y009622D02*
X017709Y009622D01*
X017667Y009701D02*
X019611Y009701D01*
X019498Y009779D02*
X017615Y009779D01*
X017545Y009858D02*
X019333Y009858D01*
X019268Y010545D02*
X019415Y010601D01*
X019552Y010679D01*
X019674Y010778D01*
X019780Y010895D01*
X019866Y011027D01*
X019931Y011171D01*
X019972Y011323D01*
X019989Y011480D01*
X019981Y011637D01*
X019942Y011790D01*
X019880Y011935D01*
X019796Y012068D01*
X019693Y012187D01*
X019572Y012288D01*
X019437Y012369D01*
X019290Y012427D01*
X019137Y012463D01*
X018980Y012473D01*
X018823Y012459D01*
X017300Y011993D01*
X017425Y011918D01*
X017537Y011823D01*
X017632Y011712D01*
X017708Y011588D01*
X017763Y011453D01*
X017796Y011311D01*
X017806Y011165D01*
X017793Y011020D01*
X017756Y010878D01*
X019765Y010878D01*
X019820Y010957D02*
X017777Y010957D01*
X017794Y011035D02*
X019870Y011035D01*
X019905Y011114D02*
X017801Y011114D01*
X017804Y011192D02*
X019936Y011192D01*
X019958Y011271D02*
X017799Y011271D01*
X017787Y011349D02*
X019975Y011349D01*
X019983Y011428D02*
X017769Y011428D01*
X017741Y011506D02*
X019987Y011506D01*
X019983Y011585D02*
X017709Y011585D01*
X017662Y011663D02*
X019974Y011663D01*
X019954Y011742D02*
X017607Y011742D01*
X017539Y011820D02*
X019929Y011820D01*
X019896Y011899D02*
X017448Y011899D01*
X017326Y011977D02*
X019854Y011977D01*
X019804Y012056D02*
X017505Y012056D01*
X017761Y012134D02*
X019739Y012134D01*
X019662Y012213D02*
X018018Y012213D01*
X018274Y012291D02*
X019567Y012291D01*
X019435Y012370D02*
X018530Y012370D01*
X018786Y012448D02*
X019200Y012448D01*
X018757Y013109D02*
X018618Y013035D01*
X017090Y012589D01*
X017153Y012721D01*
X017194Y012861D01*
X017213Y013005D01*
X017208Y013151D01*
X017180Y013294D01*
X017130Y013431D01*
X017058Y013559D01*
X016967Y013673D01*
X016859Y013771D01*
X016737Y013851D01*
X016603Y013910D01*
X016462Y013947D01*
X017793Y014822D01*
X017939Y014880D01*
X018093Y014913D01*
X018250Y014923D01*
X018407Y014908D01*
X018560Y014868D01*
X018704Y014805D01*
X018837Y014720D01*
X018955Y014615D01*
X019055Y014494D01*
X019135Y014358D01*
X019186Y014209D01*
X019214Y014054D01*
X019217Y013896D01*
X019196Y013740D01*
X019150Y013590D01*
X019082Y013448D01*
X018992Y013318D01*
X018883Y013205D01*
X018757Y013109D01*
X018695Y013076D02*
X017211Y013076D01*
X017212Y012998D02*
X018490Y012998D01*
X018221Y012919D02*
X017202Y012919D01*
X017188Y012841D02*
X017952Y012841D01*
X017683Y012762D02*
X017165Y012762D01*
X017135Y012684D02*
X017414Y012684D01*
X017145Y012605D02*
X017097Y012605D01*
X017207Y013155D02*
X018817Y013155D01*
X018910Y013233D02*
X017192Y013233D01*
X017174Y013312D02*
X018985Y013312D01*
X019042Y013390D02*
X017145Y013390D01*
X017109Y013469D02*
X019092Y013469D01*
X019130Y013547D02*
X017065Y013547D01*
X017005Y013626D02*
X019161Y013626D01*
X019185Y013704D02*
X016933Y013704D01*
X016841Y013783D02*
X019202Y013783D01*
X019213Y013861D02*
X016713Y013861D01*
X016570Y014018D02*
X019215Y014018D01*
X019217Y013940D02*
X016490Y013940D01*
X016689Y014097D02*
X019207Y014097D01*
X019193Y014175D02*
X016809Y014175D01*
X016928Y014254D02*
X019171Y014254D01*
X019144Y014332D02*
X017048Y014332D01*
X017167Y014411D02*
X019104Y014411D01*
X019058Y014489D02*
X017286Y014489D01*
X017406Y014568D02*
X018994Y014568D01*
X018920Y014646D02*
X017525Y014646D01*
X017644Y014725D02*
X018830Y014725D01*
X018707Y014803D02*
X017764Y014803D01*
X017948Y014882D02*
X018507Y014882D01*
X017654Y015561D02*
X017727Y015701D01*
X017777Y015850D01*
X017803Y016006D01*
X017805Y016163D01*
X017782Y016319D01*
X017734Y016470D01*
X017664Y016611D01*
X017573Y016739D01*
X017458Y016847D01*
X017328Y016936D01*
X017185Y017003D01*
X017034Y017047D01*
X016878Y017067D01*
X016720Y017062D01*
X016565Y017033D01*
X016417Y016980D01*
X016279Y016904D01*
X016154Y016808D01*
X015123Y015594D01*
X015269Y015598D01*
X015413Y015579D01*
X015553Y015537D01*
X015684Y015473D01*
X015804Y015389D01*
X015908Y015287D01*
X015995Y015170D01*
X016062Y015040D01*
X016108Y014901D01*
X016130Y014757D01*
X016130Y014611D01*
X016106Y014467D01*
X017448Y015324D01*
X017561Y015435D01*
X017654Y015561D01*
X017668Y015588D02*
X015346Y015588D01*
X015184Y015667D02*
X017709Y015667D01*
X017742Y015745D02*
X015251Y015745D01*
X015317Y015824D02*
X017768Y015824D01*
X017786Y015902D02*
X015384Y015902D01*
X015451Y015981D02*
X017799Y015981D01*
X017804Y016059D02*
X015518Y016059D01*
X015584Y016138D02*
X017805Y016138D01*
X017797Y016216D02*
X015651Y016216D01*
X015718Y016295D02*
X017785Y016295D01*
X017765Y016373D02*
X015785Y016373D01*
X015851Y016452D02*
X017740Y016452D01*
X017704Y016530D02*
X015918Y016530D01*
X015985Y016609D02*
X017665Y016609D01*
X017609Y016687D02*
X016052Y016687D01*
X016118Y016766D02*
X017544Y016766D01*
X017461Y016844D02*
X016201Y016844D01*
X016312Y016923D02*
X017347Y016923D01*
X017189Y017001D02*
X016476Y017001D01*
X015838Y017450D02*
X015869Y017605D01*
X015875Y017762D01*
X015856Y017919D01*
X015813Y018070D01*
X015747Y018213D01*
X015660Y018344D01*
X015553Y018460D01*
X015429Y018558D01*
X015288Y018629D01*
X015139Y018678D01*
X014983Y018702D01*
X014825Y018702D01*
X014670Y018677D01*
X014520Y018629D01*
X014380Y018557D01*
X014252Y018464D01*
X014141Y018353D01*
X014048Y018225D01*
X013399Y016771D01*
X013538Y016816D01*
X013682Y016838D01*
X013828Y016837D01*
X013972Y016813D01*
X014110Y016765D01*
X014239Y016697D01*
X014355Y016609D01*
X014456Y016503D01*
X014539Y016383D01*
X014601Y016251D01*
X014641Y016110D01*
X014659Y015965D01*
X015707Y017165D01*
X015783Y017302D01*
X015838Y017450D01*
X015842Y017472D02*
X013712Y017472D01*
X013747Y017551D02*
X015858Y017551D01*
X015870Y017629D02*
X013782Y017629D01*
X013817Y017708D02*
X015873Y017708D01*
X015872Y017786D02*
X013852Y017786D01*
X013887Y017865D02*
X015863Y017865D01*
X015849Y017943D02*
X013922Y017943D01*
X013957Y018022D02*
X015827Y018022D01*
X015800Y018100D02*
X013992Y018100D01*
X014027Y018179D02*
X015763Y018179D01*
X015718Y018257D02*
X014071Y018257D01*
X014128Y018336D02*
X015665Y018336D01*
X015595Y018414D02*
X014202Y018414D01*
X014291Y018493D02*
X015511Y018493D01*
X015402Y018571D02*
X014407Y018571D01*
X014584Y018650D02*
X015225Y018650D01*
X015817Y017394D02*
X013677Y017394D01*
X013642Y017315D02*
X015788Y017315D01*
X015747Y017237D02*
X013606Y017237D01*
X013571Y017158D02*
X015701Y017158D01*
X015632Y017080D02*
X013536Y017080D01*
X013501Y017001D02*
X015563Y017001D01*
X015495Y016923D02*
X013466Y016923D01*
X013431Y016844D02*
X015426Y016844D01*
X015358Y016766D02*
X014109Y016766D01*
X014252Y016687D02*
X015289Y016687D01*
X015221Y016609D02*
X014355Y016609D01*
X014430Y016530D02*
X015152Y016530D01*
X015084Y016452D02*
X014491Y016452D01*
X014543Y016373D02*
X015015Y016373D01*
X014946Y016295D02*
X014580Y016295D01*
X014611Y016216D02*
X014878Y016216D01*
X014809Y016138D02*
X014634Y016138D01*
X014648Y016059D02*
X014741Y016059D01*
X014672Y015981D02*
X014657Y015981D01*
X015609Y015510D02*
X017616Y015510D01*
X017557Y015431D02*
X015744Y015431D01*
X015841Y015353D02*
X017477Y015353D01*
X017370Y015274D02*
X015918Y015274D01*
X015976Y015196D02*
X017247Y015196D01*
X017124Y015117D02*
X016022Y015117D01*
X016063Y015039D02*
X017001Y015039D01*
X016878Y014960D02*
X016088Y014960D01*
X016111Y014882D02*
X016755Y014882D01*
X016632Y014803D02*
X016123Y014803D01*
X016130Y014725D02*
X016509Y014725D01*
X016386Y014646D02*
X016130Y014646D01*
X016123Y014568D02*
X016263Y014568D01*
X016141Y014489D02*
X016110Y014489D01*
X013032Y017315D02*
X012690Y017315D01*
X012650Y017360D02*
X012747Y017251D01*
X012825Y017127D01*
X012883Y016993D01*
X013551Y018438D01*
X013587Y018592D01*
X013597Y018749D01*
X013583Y018906D01*
X013545Y019059D01*
X013483Y019204D01*
X013400Y019337D01*
X013296Y019456D01*
X013175Y019557D01*
X013040Y019638D01*
X012894Y019697D01*
X012739Y019726D01*
X012582Y019731D01*
X012425Y019711D01*
X012274Y019667D01*
X012132Y019599D01*
X012002Y019510D01*
X011887Y019402D01*
X011791Y019277D01*
X011715Y019139D01*
X011662Y018991D01*
X011447Y017413D01*
X011568Y017495D01*
X011700Y017557D01*
X011840Y017596D01*
X011985Y017613D01*
X012131Y017607D01*
X012274Y017577D01*
X012410Y017525D01*
X012537Y017452D01*
X012650Y017360D01*
X012608Y017394D02*
X013068Y017394D01*
X013104Y017472D02*
X012502Y017472D01*
X012344Y017551D02*
X013141Y017551D01*
X013177Y017629D02*
X011476Y017629D01*
X011465Y017551D02*
X011687Y017551D01*
X011534Y017472D02*
X011455Y017472D01*
X011487Y017708D02*
X013213Y017708D01*
X013250Y017786D02*
X011498Y017786D01*
X011508Y017865D02*
X013286Y017865D01*
X013322Y017943D02*
X011519Y017943D01*
X011530Y018022D02*
X013359Y018022D01*
X013395Y018100D02*
X011540Y018100D01*
X011551Y018179D02*
X013431Y018179D01*
X013467Y018257D02*
X011562Y018257D01*
X011573Y018336D02*
X013504Y018336D01*
X013540Y018414D02*
X011583Y018414D01*
X011594Y018493D02*
X013564Y018493D01*
X013582Y018571D02*
X011605Y018571D01*
X011615Y018650D02*
X013591Y018650D01*
X013596Y018728D02*
X011626Y018728D01*
X011637Y018807D02*
X013592Y018807D01*
X013585Y018885D02*
X011648Y018885D01*
X011658Y018964D02*
X013569Y018964D01*
X013549Y019042D02*
X011680Y019042D01*
X011708Y019121D02*
X013519Y019121D01*
X013485Y019199D02*
X011748Y019199D01*
X011791Y019278D02*
X013437Y019278D01*
X013383Y019356D02*
X011851Y019356D01*
X011921Y019435D02*
X013315Y019435D01*
X013228Y019513D02*
X012006Y019513D01*
X012121Y019592D02*
X013118Y019592D01*
X012961Y019670D02*
X012286Y019670D01*
X011104Y019361D02*
X011137Y019207D01*
X011147Y019050D01*
X010911Y017475D01*
X010818Y017588D01*
X010708Y017684D01*
X010584Y017762D01*
X010450Y017819D01*
X010308Y017853D01*
X010162Y017865D01*
X010017Y017853D01*
X009875Y017819D01*
X009741Y017762D01*
X009617Y017684D01*
X009507Y017588D01*
X009414Y017475D01*
X009178Y019050D01*
X009188Y019207D01*
X009221Y019361D01*
X009279Y019508D01*
X009358Y019644D01*
X009458Y019766D01*
X009576Y019870D01*
X009709Y019955D01*
X009853Y020018D01*
X010006Y020058D01*
X010162Y020074D01*
X010319Y020058D01*
X010472Y020018D01*
X010616Y019955D01*
X010749Y019870D01*
X010867Y019766D01*
X010967Y019644D01*
X011046Y019508D01*
X011104Y019361D01*
X011105Y019356D02*
X009220Y019356D01*
X009203Y019278D02*
X011122Y019278D01*
X011138Y019199D02*
X009187Y019199D01*
X009182Y019121D02*
X011143Y019121D01*
X011146Y019042D02*
X009179Y019042D01*
X009191Y018964D02*
X011134Y018964D01*
X011122Y018885D02*
X009203Y018885D01*
X009215Y018807D02*
X011110Y018807D01*
X011098Y018728D02*
X009227Y018728D01*
X009238Y018650D02*
X011087Y018650D01*
X011075Y018571D02*
X009250Y018571D01*
X009262Y018493D02*
X011063Y018493D01*
X011051Y018414D02*
X009274Y018414D01*
X009285Y018336D02*
X011040Y018336D01*
X011028Y018257D02*
X009297Y018257D01*
X009309Y018179D02*
X011016Y018179D01*
X011004Y018100D02*
X009321Y018100D01*
X009332Y018022D02*
X010992Y018022D01*
X010981Y017943D02*
X009344Y017943D01*
X009356Y017865D02*
X010158Y017865D01*
X010167Y017865D02*
X010969Y017865D01*
X010957Y017786D02*
X010526Y017786D01*
X010670Y017708D02*
X010945Y017708D01*
X010934Y017629D02*
X010770Y017629D01*
X010848Y017551D02*
X010922Y017551D01*
X009798Y017786D02*
X009368Y017786D01*
X009380Y017708D02*
X009655Y017708D01*
X009554Y017629D02*
X009391Y017629D01*
X009403Y017551D02*
X009477Y017551D01*
X008885Y017472D02*
X008824Y017472D01*
X008770Y017507D02*
X008892Y017427D01*
X008658Y019002D01*
X008603Y019150D01*
X008526Y019287D01*
X008428Y019410D01*
X008312Y019517D01*
X008181Y019604D01*
X008037Y019670D01*
X007362Y019670D01*
X007417Y019693D02*
X007272Y019632D01*
X007138Y019550D01*
X007018Y019447D01*
X006916Y019327D01*
X006834Y019193D01*
X006774Y019047D01*
X006737Y018894D01*
X006725Y018737D01*
X006738Y018579D01*
X006775Y018426D01*
X007462Y016989D01*
X007517Y017124D01*
X007594Y017248D01*
X007690Y017359D01*
X007802Y017452D01*
X007927Y017527D01*
X008063Y017581D01*
X008205Y017612D01*
X008351Y017620D01*
X008496Y017605D01*
X008637Y017567D01*
X008770Y017507D01*
X008674Y017551D02*
X008874Y017551D01*
X008862Y017629D02*
X007156Y017629D01*
X007193Y017551D02*
X007986Y017551D01*
X007835Y017472D02*
X007231Y017472D01*
X007268Y017394D02*
X007731Y017394D01*
X007652Y017315D02*
X007306Y017315D01*
X007343Y017237D02*
X007587Y017237D01*
X007538Y017158D02*
X007381Y017158D01*
X007418Y017080D02*
X007499Y017080D01*
X007466Y017001D02*
X007456Y017001D01*
X006936Y016789D02*
X006269Y018234D01*
X006175Y018361D01*
X006062Y018471D01*
X005933Y018562D01*
X005792Y018632D01*
X005642Y018679D01*
X005486Y018702D01*
X005328Y018700D01*
X005173Y018673D01*
X005024Y018623D01*
X004884Y018550D01*
X004761Y018451D01*
X004656Y018334D01*
X004570Y018202D01*
X004506Y018058D01*
X004465Y017906D01*
X004448Y017749D01*
X004456Y017592D01*
X004489Y017437D01*
X004545Y017290D01*
X004623Y017154D01*
X005685Y015967D01*
X005701Y016112D01*
X005740Y016253D01*
X005801Y016386D01*
X005882Y016507D01*
X005981Y016614D01*
X006097Y016704D01*
X006225Y016774D01*
X006362Y016823D01*
X006506Y016849D01*
X006652Y016852D01*
X006796Y016832D01*
X006936Y016789D01*
X006910Y016844D02*
X006708Y016844D01*
X006874Y016923D02*
X004830Y016923D01*
X004760Y017001D02*
X006838Y017001D01*
X006802Y017080D02*
X004690Y017080D01*
X004621Y017158D02*
X006765Y017158D01*
X006729Y017237D02*
X004576Y017237D01*
X004535Y017315D02*
X006693Y017315D01*
X006657Y017394D02*
X004505Y017394D01*
X004481Y017472D02*
X006620Y017472D01*
X006584Y017551D02*
X004465Y017551D01*
X004454Y017629D02*
X006548Y017629D01*
X006512Y017708D02*
X004450Y017708D01*
X004452Y017786D02*
X006476Y017786D01*
X006439Y017865D02*
X004460Y017865D01*
X004475Y017943D02*
X006403Y017943D01*
X006367Y018022D02*
X004496Y018022D01*
X004525Y018100D02*
X006331Y018100D01*
X006294Y018179D02*
X004560Y018179D01*
X004606Y018257D02*
X006252Y018257D01*
X006193Y018336D02*
X004658Y018336D01*
X004728Y018414D02*
X006120Y018414D01*
X006031Y018493D02*
X004813Y018493D01*
X004925Y018571D02*
X005915Y018571D01*
X005735Y018650D02*
X005103Y018650D01*
X004105Y017009D02*
X003966Y017083D01*
X003817Y017134D01*
X003661Y017162D01*
X003504Y017165D01*
X003348Y017143D01*
X003197Y017097D01*
X003056Y017028D01*
X002926Y016937D01*
X002813Y016828D01*
X002723Y016699D01*
X002655Y016557D01*
X002609Y016406D01*
X002588Y016250D01*
X002591Y016092D01*
X002619Y015937D01*
X002671Y015788D01*
X002746Y015649D01*
X002841Y015524D01*
X002955Y015415D01*
X004307Y014574D01*
X004282Y014718D01*
X004279Y014864D01*
X004300Y015008D01*
X004344Y015148D01*
X004410Y015278D01*
X004495Y015397D01*
X004598Y015500D01*
X004717Y015585D01*
X004847Y015651D01*
X004986Y015695D01*
X005131Y015716D01*
X005277Y015714D01*
X004230Y016914D01*
X004105Y017009D01*
X004115Y017001D02*
X003017Y017001D01*
X002911Y016923D02*
X004219Y016923D01*
X004291Y016844D02*
X002830Y016844D01*
X002770Y016766D02*
X004360Y016766D01*
X004428Y016687D02*
X002718Y016687D01*
X002680Y016609D02*
X004497Y016609D01*
X004565Y016530D02*
X002647Y016530D01*
X002623Y016452D02*
X004634Y016452D01*
X004702Y016373D02*
X002605Y016373D01*
X002594Y016295D02*
X004770Y016295D01*
X004839Y016216D02*
X002589Y016216D01*
X002590Y016138D02*
X004907Y016138D01*
X004976Y016059D02*
X002597Y016059D01*
X002611Y015981D02*
X005044Y015981D01*
X005112Y015902D02*
X002631Y015902D01*
X002659Y015824D02*
X005181Y015824D01*
X005249Y015745D02*
X002694Y015745D01*
X002736Y015667D02*
X004897Y015667D01*
X004722Y015588D02*
X002792Y015588D01*
X002856Y015510D02*
X004612Y015510D01*
X004530Y015431D02*
X002938Y015431D01*
X003055Y015353D02*
X004463Y015353D01*
X004408Y015274D02*
X003181Y015274D01*
X003308Y015196D02*
X004368Y015196D01*
X004335Y015117D02*
X003434Y015117D01*
X003560Y015039D02*
X004310Y015039D01*
X004293Y014960D02*
X003686Y014960D01*
X003813Y014882D02*
X004282Y014882D01*
X004280Y014803D02*
X003939Y014803D01*
X004065Y014725D02*
X004281Y014725D01*
X004294Y014646D02*
X004191Y014646D01*
X003659Y014097D02*
X001118Y014097D01*
X001108Y014040D02*
X001107Y013882D01*
X001131Y013727D01*
X001178Y013576D01*
X001248Y013435D01*
X001340Y013307D01*
X001450Y013195D01*
X001577Y013101D01*
X001717Y013028D01*
X003251Y012601D01*
X003186Y012732D01*
X003143Y012871D01*
X003123Y013016D01*
X003126Y013162D01*
X003152Y013305D01*
X003200Y013443D01*
X003271Y013571D01*
X003360Y013686D01*
X003467Y013786D01*
X003588Y013867D01*
X003721Y013928D01*
X003862Y013967D01*
X002521Y014825D01*
X002373Y014881D01*
X002219Y014913D01*
X002062Y014920D01*
X001905Y014903D01*
X001753Y014862D01*
X001609Y014797D01*
X001478Y014711D01*
X001361Y014605D01*
X001262Y014482D01*
X001184Y014345D01*
X001134Y014195D01*
X001108Y014040D01*
X001108Y014018D02*
X003781Y014018D01*
X003764Y013940D02*
X001108Y013940D01*
X001110Y013861D02*
X003580Y013861D01*
X003464Y013783D02*
X001122Y013783D01*
X001138Y013704D02*
X003379Y013704D01*
X003313Y013626D02*
X001162Y013626D01*
X001193Y013547D02*
X003257Y013547D01*
X003215Y013469D02*
X001232Y013469D01*
X001281Y013390D02*
X003182Y013390D01*
X003154Y013312D02*
X001337Y013312D01*
X001413Y013233D02*
X003139Y013233D01*
X003125Y013155D02*
X001505Y013155D01*
X001625Y013076D02*
X003124Y013076D01*
X003125Y012998D02*
X001827Y012998D01*
X002109Y012919D02*
X003136Y012919D01*
X003152Y012841D02*
X002391Y012841D01*
X002672Y012762D02*
X003177Y012762D01*
X003210Y012684D02*
X002954Y012684D01*
X003236Y012605D02*
X003249Y012605D01*
X003018Y012011D02*
X001490Y012459D01*
X001333Y012471D01*
X001176Y012459D01*
X001023Y012422D01*
X000877Y012361D01*
X000743Y012279D01*
X000623Y012176D01*
X000521Y012056D01*
X000439Y011922D01*
X000379Y011776D01*
X000342Y011623D01*
X000336Y011465D01*
X000355Y011309D01*
X000398Y011157D01*
X000464Y011014D01*
X000552Y010883D01*
X000659Y010768D01*
X000783Y010670D01*
X000920Y010594D01*
X001068Y010539D01*
X001223Y010509D01*
X002815Y010529D01*
X002716Y010636D01*
X002636Y010758D01*
X002576Y010891D01*
X002538Y011032D01*
X002522Y011177D01*
X002531Y011323D01*
X002562Y011466D01*
X002615Y011601D01*
X002690Y011727D01*
X002784Y011839D01*
X002894Y011934D01*
X003018Y012011D01*
X002963Y011977D02*
X000473Y011977D01*
X000429Y011899D02*
X002853Y011899D01*
X002768Y011820D02*
X000397Y011820D01*
X000371Y011742D02*
X002702Y011742D01*
X002652Y011663D02*
X000352Y011663D01*
X000341Y011585D02*
X002609Y011585D01*
X002578Y011506D02*
X000338Y011506D01*
X000341Y011428D02*
X002553Y011428D01*
X002536Y011349D02*
X000350Y011349D01*
X000366Y011271D02*
X002528Y011271D01*
X002523Y011192D02*
X000388Y011192D01*
X000418Y011114D02*
X002529Y011114D01*
X002537Y011035D02*
X000455Y011035D01*
X000503Y010957D02*
X002558Y010957D01*
X002582Y010878D02*
X000557Y010878D01*
X000630Y010800D02*
X002617Y010800D01*
X002660Y010721D02*
X000718Y010721D01*
X000833Y010643D02*
X002712Y010643D01*
X002783Y010564D02*
X001001Y010564D01*
X001211Y009913D02*
X001057Y009880D01*
X000910Y009824D01*
X000773Y009746D01*
X000651Y009647D01*
X000545Y009530D01*
X000459Y009398D01*
X000394Y009254D01*
X000353Y009102D01*
X000336Y008945D01*
X000344Y008788D01*
X000383Y008635D01*
X000445Y008490D01*
X000528Y008357D01*
X000632Y008238D01*
X000753Y008137D01*
X000888Y008056D01*
X001034Y007997D01*
X001188Y007962D01*
X001345Y007952D01*
X001502Y007966D01*
X003025Y008432D01*
X002900Y008507D01*
X002788Y008602D01*
X002693Y008713D01*
X002617Y008837D01*
X002562Y008972D01*
X002529Y009114D01*
X002519Y009260D01*
X002532Y009405D01*
X002569Y009547D01*
X002627Y009681D01*
X002706Y009803D01*
X002804Y009912D01*
X001211Y009913D01*
X000998Y009858D02*
X002755Y009858D01*
X002691Y009779D02*
X000832Y009779D01*
X000717Y009701D02*
X002640Y009701D01*
X002601Y009622D02*
X000628Y009622D01*
X000557Y009544D02*
X002568Y009544D01*
X002548Y009465D02*
X000503Y009465D01*
X000454Y009387D02*
X002530Y009387D01*
X002523Y009308D02*
X000419Y009308D01*
X000388Y009230D02*
X002521Y009230D01*
X002526Y009151D02*
X000367Y009151D01*
X000350Y009073D02*
X002538Y009073D01*
X002557Y008994D02*
X000342Y008994D01*
X000338Y008916D02*
X002585Y008916D01*
X002617Y008837D02*
X000342Y008837D01*
X000352Y008759D02*
X002665Y008759D01*
X002721Y008680D02*
X000372Y008680D01*
X000397Y008602D02*
X002788Y008602D01*
X002881Y008523D02*
X000431Y008523D01*
X000473Y008445D02*
X003004Y008445D01*
X002809Y008366D02*
X000523Y008366D01*
X000589Y008288D02*
X002553Y008288D01*
X002296Y008209D02*
X000667Y008209D01*
X000764Y008131D02*
X002040Y008131D01*
X001784Y008052D02*
X000899Y008052D01*
X001139Y007974D02*
X001528Y007974D01*
X001897Y007346D02*
X003115Y007346D01*
X003112Y007320D02*
X003131Y007464D01*
X003172Y007604D01*
X003235Y007736D01*
X001707Y007290D01*
X001568Y007216D01*
X001442Y007120D01*
X001333Y007007D01*
X001243Y006877D01*
X001175Y006735D01*
X001129Y006585D01*
X001107Y006429D01*
X001111Y006271D01*
X001139Y006116D01*
X001190Y005967D01*
X001270Y005831D01*
X001370Y005710D01*
X001488Y005605D01*
X001621Y005520D01*
X001765Y005457D01*
X001918Y005417D01*
X002075Y005402D01*
X002232Y005412D01*
X002386Y005445D01*
X002532Y005503D01*
X003863Y006378D01*
X003722Y006415D01*
X003588Y006474D01*
X003466Y006554D01*
X003358Y006652D01*
X003267Y006766D01*
X003195Y006894D01*
X003145Y007030D01*
X003117Y007174D01*
X003112Y007320D01*
X003114Y007267D02*
X001664Y007267D01*
X001532Y007189D02*
X003116Y007189D01*
X003129Y007110D02*
X001432Y007110D01*
X001357Y007032D02*
X003145Y007032D01*
X003173Y006953D02*
X001296Y006953D01*
X001242Y006875D02*
X003206Y006875D01*
X003250Y006796D02*
X001204Y006796D01*
X001169Y006718D02*
X003306Y006718D01*
X003372Y006639D02*
X001145Y006639D01*
X001126Y006561D02*
X003459Y006561D01*
X003576Y006482D02*
X001115Y006482D01*
X001108Y006404D02*
X003766Y006404D01*
X003782Y006325D02*
X001110Y006325D01*
X001115Y006247D02*
X003663Y006247D01*
X003544Y006168D02*
X001129Y006168D01*
X001148Y006090D02*
X003424Y006090D01*
X003305Y006011D02*
X001175Y006011D01*
X001211Y005933D02*
X003186Y005933D01*
X003066Y005854D02*
X001257Y005854D01*
X001316Y005776D02*
X002947Y005776D01*
X002828Y005697D02*
X001384Y005697D01*
X001473Y005619D02*
X002708Y005619D01*
X002589Y005540D02*
X001590Y005540D01*
X001755Y005462D02*
X002427Y005462D01*
X002877Y005001D02*
X002764Y004890D01*
X002671Y004764D01*
X002598Y004624D01*
X002548Y004475D01*
X002522Y004319D01*
X002520Y004162D01*
X002543Y004006D01*
X002591Y003855D01*
X002661Y003714D01*
X002752Y003586D01*
X002867Y003478D01*
X002997Y003389D01*
X003140Y003322D01*
X003291Y003278D01*
X003447Y003258D01*
X003605Y003263D01*
X003760Y003292D01*
X003908Y003345D01*
X004046Y003421D01*
X004171Y003517D01*
X005202Y004731D01*
X005056Y004727D01*
X004912Y004746D01*
X004772Y004788D01*
X004641Y004852D01*
X004521Y004936D01*
X004417Y005038D01*
X004330Y005155D01*
X004263Y005285D01*
X004217Y005424D01*
X004195Y005568D01*
X004195Y005714D01*
X004219Y005858D01*
X002877Y005001D01*
X002866Y004991D02*
X004465Y004991D01*
X004394Y005069D02*
X002984Y005069D01*
X003107Y005148D02*
X004336Y005148D01*
X004293Y005226D02*
X003230Y005226D01*
X003353Y005305D02*
X004256Y005305D01*
X004231Y005383D02*
X003475Y005383D01*
X003598Y005462D02*
X004211Y005462D01*
X004199Y005540D02*
X003721Y005540D01*
X003844Y005619D02*
X004195Y005619D01*
X004195Y005697D02*
X003967Y005697D01*
X004090Y005776D02*
X004205Y005776D01*
X004213Y005854D02*
X004218Y005854D01*
X004555Y004912D02*
X002787Y004912D01*
X002722Y004834D02*
X004679Y004834D01*
X004881Y004755D02*
X002666Y004755D01*
X002625Y004677D02*
X005156Y004677D01*
X005090Y004598D02*
X002589Y004598D01*
X002563Y004520D02*
X005023Y004520D01*
X004956Y004441D02*
X002542Y004441D01*
X002529Y004363D02*
X004889Y004363D01*
X004823Y004284D02*
X002521Y004284D01*
X002521Y004206D02*
X004756Y004206D01*
X004689Y004127D02*
X002525Y004127D01*
X002537Y004049D02*
X004622Y004049D01*
X004556Y003970D02*
X002555Y003970D01*
X002579Y003892D02*
X004489Y003892D01*
X004422Y003813D02*
X002612Y003813D01*
X002651Y003735D02*
X004356Y003735D01*
X004289Y003656D02*
X002703Y003656D01*
X002762Y003578D02*
X004222Y003578D01*
X004147Y003499D02*
X002845Y003499D01*
X002952Y003421D02*
X004046Y003421D01*
X003899Y003342D02*
X003098Y003342D01*
X003404Y003264D02*
X003609Y003264D01*
X004487Y002875D02*
X004456Y002720D01*
X004450Y002563D01*
X004469Y002406D01*
X004512Y002255D01*
X004578Y002112D01*
X004665Y001981D01*
X004772Y001865D01*
X004896Y001767D01*
X005037Y001696D01*
X005186Y001647D01*
X005342Y001623D01*
X005500Y001623D01*
X005655Y001648D01*
X005805Y001696D01*
X005945Y001768D01*
X006073Y001861D01*
X006184Y001972D01*
X006277Y002100D01*
X006926Y003554D01*
X006787Y003509D01*
X006643Y003487D01*
X006497Y003488D01*
X006353Y003512D01*
X006215Y003560D01*
X006086Y003628D01*
X005970Y003716D01*
X005869Y003822D01*
X005786Y003942D01*
X005724Y004074D01*
X005684Y004215D01*
X005666Y004360D01*
X004618Y003160D01*
X004542Y003023D01*
X004487Y002875D01*
X004486Y002871D02*
X006621Y002871D01*
X006586Y002793D02*
X004471Y002793D01*
X004456Y002714D02*
X006551Y002714D01*
X006516Y002636D02*
X004453Y002636D01*
X004451Y002557D02*
X006481Y002557D01*
X006446Y002479D02*
X004460Y002479D01*
X004471Y002400D02*
X006411Y002400D01*
X006376Y002322D02*
X004493Y002322D01*
X004517Y002243D02*
X006341Y002243D01*
X006306Y002165D02*
X004553Y002165D01*
X004595Y002086D02*
X006267Y002086D01*
X006210Y002008D02*
X004647Y002008D01*
X004713Y001929D02*
X006141Y001929D01*
X006059Y001851D02*
X004791Y001851D01*
X004890Y001772D02*
X005951Y001772D01*
X005796Y001694D02*
X005044Y001694D01*
X004515Y002950D02*
X006657Y002950D01*
X006692Y003028D02*
X004545Y003028D01*
X004588Y003107D02*
X006727Y003107D01*
X006762Y003185D02*
X004640Y003185D01*
X004709Y003264D02*
X006797Y003264D01*
X006832Y003342D02*
X004777Y003342D01*
X004846Y003421D02*
X006867Y003421D01*
X006902Y003499D02*
X006724Y003499D01*
X006432Y003499D02*
X004914Y003499D01*
X004983Y003578D02*
X006181Y003578D01*
X006049Y003656D02*
X005052Y003656D01*
X005120Y003735D02*
X005953Y003735D01*
X005878Y003813D02*
X005189Y003813D01*
X005257Y003892D02*
X005821Y003892D01*
X005773Y003970D02*
X005326Y003970D01*
X005394Y004049D02*
X005736Y004049D01*
X005709Y004127D02*
X005463Y004127D01*
X005531Y004206D02*
X005686Y004206D01*
X005675Y004284D02*
X005600Y004284D01*
X007302Y003028D02*
X007619Y003028D01*
X007578Y003074D02*
X007675Y002965D01*
X007788Y002873D01*
X007915Y002800D01*
X008051Y002748D01*
X008194Y002718D01*
X008340Y002712D01*
X008485Y002729D01*
X008625Y002768D01*
X008757Y002830D01*
X008878Y002912D01*
X008663Y001334D01*
X008610Y001186D01*
X008534Y001048D01*
X008438Y000923D01*
X008323Y000815D01*
X008193Y000726D01*
X008051Y000658D01*
X007900Y000614D01*
X007743Y000594D01*
X007586Y000599D01*
X007431Y000628D01*
X007285Y000687D01*
X007150Y000768D01*
X007029Y000869D01*
X006925Y000988D01*
X006842Y001121D01*
X006780Y001266D01*
X006742Y001419D01*
X006728Y001576D01*
X006738Y001733D01*
X006774Y001887D01*
X007442Y003332D01*
X007500Y003198D01*
X007578Y003074D01*
X007558Y003107D02*
X007338Y003107D01*
X007374Y003185D02*
X007508Y003185D01*
X007472Y003264D02*
X007411Y003264D01*
X007265Y002950D02*
X007694Y002950D01*
X007791Y002871D02*
X007229Y002871D01*
X007193Y002793D02*
X007934Y002793D01*
X008286Y002714D02*
X007156Y002714D01*
X007120Y002636D02*
X008841Y002636D01*
X008851Y002714D02*
X008360Y002714D01*
X008677Y002793D02*
X008862Y002793D01*
X008873Y002871D02*
X008818Y002871D01*
X008830Y002557D02*
X007084Y002557D01*
X007048Y002479D02*
X008819Y002479D01*
X008808Y002400D02*
X007011Y002400D01*
X006975Y002322D02*
X008798Y002322D01*
X008787Y002243D02*
X006939Y002243D01*
X006902Y002165D02*
X008776Y002165D01*
X008766Y002086D02*
X006866Y002086D01*
X006830Y002008D02*
X008755Y002008D01*
X008744Y001929D02*
X006793Y001929D01*
X006765Y001851D02*
X008733Y001851D01*
X008723Y001772D02*
X006747Y001772D01*
X006736Y001694D02*
X008712Y001694D01*
X008701Y001615D02*
X006730Y001615D01*
X006731Y001537D02*
X008691Y001537D01*
X008680Y001458D02*
X006738Y001458D01*
X006751Y001380D02*
X008669Y001380D01*
X008651Y001301D02*
X006771Y001301D01*
X006798Y001223D02*
X008623Y001223D01*
X008587Y001144D02*
X006832Y001144D01*
X006876Y001066D02*
X008544Y001066D01*
X008488Y000987D02*
X006926Y000987D01*
X006994Y000909D02*
X008423Y000909D01*
X008340Y000830D02*
X007075Y000830D01*
X007177Y000752D02*
X008231Y000752D01*
X008082Y000673D02*
X007319Y000673D01*
X007728Y000595D02*
X007747Y000595D01*
X009221Y000964D02*
X009279Y000817D01*
X009358Y000681D01*
X009458Y000559D01*
X009576Y000455D01*
X009709Y000370D01*
X009853Y000307D01*
X010006Y000267D01*
X010162Y000251D01*
X010319Y000267D01*
X010472Y000307D01*
X010616Y000370D01*
X010749Y000455D01*
X010867Y000559D01*
X010967Y000681D01*
X011046Y000817D01*
X011104Y000964D01*
X011137Y001118D01*
X011147Y001275D01*
X010911Y002850D01*
X010818Y002737D01*
X010708Y002641D01*
X010584Y002563D01*
X010450Y002506D01*
X010308Y002472D01*
X010162Y002460D01*
X010017Y002472D01*
X009875Y002506D01*
X009741Y002563D01*
X009617Y002641D01*
X009507Y002737D01*
X009414Y002850D01*
X009178Y001275D01*
X009188Y001118D01*
X009221Y000964D01*
X009216Y000987D02*
X011109Y000987D01*
X011126Y001066D02*
X009199Y001066D01*
X009186Y001144D02*
X011139Y001144D01*
X011144Y001223D02*
X009181Y001223D01*
X009182Y001301D02*
X011143Y001301D01*
X011131Y001380D02*
X009194Y001380D01*
X009206Y001458D02*
X011119Y001458D01*
X011108Y001537D02*
X009217Y001537D01*
X009229Y001615D02*
X011096Y001615D01*
X011084Y001694D02*
X009241Y001694D01*
X009253Y001772D02*
X011072Y001772D01*
X011060Y001851D02*
X009265Y001851D01*
X009276Y001929D02*
X011049Y001929D01*
X011037Y002008D02*
X009288Y002008D01*
X009300Y002086D02*
X011025Y002086D01*
X011013Y002165D02*
X009312Y002165D01*
X009323Y002243D02*
X011002Y002243D01*
X010990Y002322D02*
X009335Y002322D01*
X009347Y002400D02*
X010978Y002400D01*
X010966Y002479D02*
X010336Y002479D01*
X009989Y002479D02*
X009359Y002479D01*
X009371Y002557D02*
X009756Y002557D01*
X009626Y002636D02*
X009382Y002636D01*
X009394Y002714D02*
X009534Y002714D01*
X009462Y002793D02*
X009406Y002793D01*
X010569Y002557D02*
X010954Y002557D01*
X010943Y002636D02*
X010699Y002636D01*
X010791Y002714D02*
X010931Y002714D01*
X010919Y002793D02*
X010863Y002793D01*
X011437Y002871D02*
X011474Y002871D01*
X011433Y002898D02*
X011667Y001323D01*
X011722Y001175D01*
X011799Y001038D01*
X011897Y000915D01*
X012013Y000808D01*
X012144Y000721D01*
X012288Y000655D01*
X012439Y000613D01*
X012596Y000594D01*
X012753Y000601D01*
X012908Y000632D01*
X013053Y000693D01*
X013187Y000775D01*
X013307Y000878D01*
X013409Y000998D01*
X013491Y001132D01*
X013551Y001278D01*
X013588Y001431D01*
X013600Y001588D01*
X013587Y001746D01*
X013550Y001899D01*
X012863Y003336D01*
X012807Y003201D01*
X012731Y003077D01*
X012635Y002966D01*
X012523Y002873D01*
X012398Y002798D01*
X012262Y002744D01*
X012119Y002713D01*
X011974Y002705D01*
X011829Y002720D01*
X011688Y002758D01*
X011555Y002818D01*
X011433Y002898D01*
X011448Y002793D02*
X011610Y002793D01*
X011460Y002714D02*
X011882Y002714D01*
X012125Y002714D02*
X013160Y002714D01*
X013123Y002793D02*
X012384Y002793D01*
X012521Y002871D02*
X013085Y002871D01*
X013048Y002950D02*
X012615Y002950D01*
X012689Y003028D02*
X013010Y003028D01*
X012973Y003107D02*
X012749Y003107D01*
X012798Y003185D02*
X012935Y003185D01*
X012898Y003264D02*
X012834Y003264D01*
X013389Y003536D02*
X014056Y002090D01*
X014150Y001964D01*
X014263Y001854D01*
X014392Y001763D01*
X014533Y001693D01*
X014683Y001646D01*
X014839Y001623D01*
X014997Y001625D01*
X015152Y001652D01*
X015301Y001702D01*
X015441Y001775D01*
X015564Y001874D01*
X015669Y001991D01*
X015755Y002123D01*
X015819Y002267D01*
X015860Y002419D01*
X015877Y002576D01*
X015869Y002733D01*
X015836Y002888D01*
X015780Y003035D01*
X015702Y003171D01*
X014640Y004358D01*
X014624Y004213D01*
X014585Y004072D01*
X014524Y003939D01*
X014443Y003818D01*
X014344Y003711D01*
X014228Y003621D01*
X014100Y003551D01*
X013963Y003502D01*
X013819Y003476D01*
X013673Y003473D01*
X013529Y003493D01*
X013389Y003536D01*
X013406Y003499D02*
X013510Y003499D01*
X013443Y003421D02*
X015478Y003421D01*
X015408Y003499D02*
X013945Y003499D01*
X014148Y003578D02*
X015338Y003578D01*
X015268Y003656D02*
X014273Y003656D01*
X014365Y003735D02*
X015197Y003735D01*
X015127Y003813D02*
X014439Y003813D01*
X014492Y003892D02*
X015057Y003892D01*
X014987Y003970D02*
X014538Y003970D01*
X014574Y004049D02*
X014916Y004049D01*
X014846Y004127D02*
X014600Y004127D01*
X014622Y004206D02*
X014776Y004206D01*
X014706Y004284D02*
X014631Y004284D01*
X015118Y004711D02*
X016165Y003511D01*
X016290Y003416D01*
X016429Y003342D01*
X017226Y003342D01*
X017198Y003328D02*
X017339Y003397D01*
X017469Y003488D01*
X017582Y003597D01*
X017672Y003726D01*
X017740Y003868D01*
X017786Y004019D01*
X017807Y004175D01*
X017804Y004333D01*
X017776Y004488D01*
X017724Y004637D01*
X017649Y004775D01*
X017554Y004901D01*
X017440Y005010D01*
X016088Y005851D01*
X016113Y005707D01*
X016116Y005561D01*
X016095Y005417D01*
X016051Y005277D01*
X015985Y005147D01*
X015900Y005028D01*
X015797Y004925D01*
X015678Y004840D01*
X015548Y004774D01*
X015409Y004730D01*
X015264Y004709D01*
X015118Y004711D01*
X015149Y004677D02*
X017702Y004677D01*
X017737Y004598D02*
X015217Y004598D01*
X015286Y004520D02*
X017765Y004520D01*
X017784Y004441D02*
X015354Y004441D01*
X015422Y004363D02*
X017798Y004363D01*
X017805Y004284D02*
X015491Y004284D01*
X015559Y004206D02*
X017806Y004206D01*
X017801Y004127D02*
X015628Y004127D01*
X015696Y004049D02*
X017790Y004049D01*
X017771Y003970D02*
X015764Y003970D01*
X015833Y003892D02*
X017747Y003892D01*
X017714Y003813D02*
X015901Y003813D01*
X015970Y003735D02*
X017676Y003735D01*
X017623Y003656D02*
X016038Y003656D01*
X016106Y003578D02*
X017562Y003578D01*
X017480Y003499D02*
X016180Y003499D01*
X016284Y003421D02*
X017373Y003421D01*
X017198Y003328D02*
X017047Y003282D01*
X016891Y003260D01*
X016734Y003263D01*
X016578Y003291D01*
X016429Y003342D01*
X016732Y003264D02*
X016914Y003264D01*
X015856Y002793D02*
X013732Y002793D01*
X013696Y002871D02*
X015840Y002871D01*
X015813Y002950D02*
X013660Y002950D01*
X013624Y003028D02*
X015783Y003028D01*
X015739Y003107D02*
X013587Y003107D01*
X013551Y003185D02*
X015689Y003185D01*
X015619Y003264D02*
X013515Y003264D01*
X013479Y003342D02*
X015549Y003342D01*
X015870Y002714D02*
X013769Y002714D01*
X013805Y002636D02*
X015874Y002636D01*
X015875Y002557D02*
X013841Y002557D01*
X013877Y002479D02*
X015867Y002479D01*
X015855Y002400D02*
X013913Y002400D01*
X013950Y002322D02*
X015834Y002322D01*
X015809Y002243D02*
X013986Y002243D01*
X014022Y002165D02*
X015774Y002165D01*
X015731Y002086D02*
X014060Y002086D01*
X014118Y002008D02*
X015680Y002008D01*
X015613Y001929D02*
X014186Y001929D01*
X014268Y001851D02*
X015534Y001851D01*
X015435Y001772D02*
X014379Y001772D01*
X014532Y001694D02*
X015276Y001694D01*
X013597Y001615D02*
X011624Y001615D01*
X011636Y001537D02*
X013596Y001537D01*
X013590Y001458D02*
X011647Y001458D01*
X011659Y001380D02*
X013575Y001380D01*
X013557Y001301D02*
X011675Y001301D01*
X011705Y001223D02*
X013528Y001223D01*
X013496Y001144D02*
X011740Y001144D01*
X011784Y001066D02*
X013450Y001066D01*
X013400Y000987D02*
X011840Y000987D01*
X011904Y000909D02*
X013333Y000909D01*
X013251Y000830D02*
X011989Y000830D01*
X012098Y000752D02*
X013149Y000752D01*
X013006Y000673D02*
X012248Y000673D01*
X012595Y000595D02*
X012599Y000595D01*
X011612Y001694D02*
X013591Y001694D01*
X013580Y001772D02*
X011600Y001772D01*
X011589Y001851D02*
X013561Y001851D01*
X013535Y001929D02*
X011577Y001929D01*
X011565Y002008D02*
X013498Y002008D01*
X013460Y002086D02*
X011554Y002086D01*
X011542Y002165D02*
X013423Y002165D01*
X013385Y002243D02*
X011530Y002243D01*
X011519Y002322D02*
X013348Y002322D01*
X013310Y002400D02*
X011507Y002400D01*
X011495Y002479D02*
X013273Y002479D01*
X013235Y002557D02*
X011484Y002557D01*
X011472Y002636D02*
X013198Y002636D01*
X011082Y000909D02*
X009243Y000909D01*
X009274Y000830D02*
X011051Y000830D01*
X011008Y000752D02*
X009317Y000752D01*
X009365Y000673D02*
X010960Y000673D01*
X010895Y000595D02*
X009430Y000595D01*
X009507Y000516D02*
X010818Y000516D01*
X010722Y000438D02*
X009603Y000438D01*
X009733Y000359D02*
X010592Y000359D01*
X010372Y000281D02*
X009953Y000281D01*
X015487Y004755D02*
X017660Y004755D01*
X017605Y004834D02*
X015666Y004834D01*
X015779Y004912D02*
X017543Y004912D01*
X017461Y004991D02*
X015862Y004991D01*
X015929Y005069D02*
X017345Y005069D01*
X017219Y005148D02*
X015986Y005148D01*
X016025Y005226D02*
X017093Y005226D01*
X016967Y005305D02*
X016059Y005305D01*
X016084Y005383D02*
X016840Y005383D01*
X016714Y005462D02*
X016101Y005462D01*
X016113Y005540D02*
X016588Y005540D01*
X016461Y005619D02*
X016115Y005619D01*
X016114Y005697D02*
X016335Y005697D01*
X016209Y005776D02*
X016101Y005776D01*
X016638Y006247D02*
X019210Y006247D01*
X019216Y006285D02*
X019218Y006443D01*
X019194Y006598D01*
X019147Y006749D01*
X019077Y006890D01*
X018985Y007018D01*
X018875Y007130D01*
X018748Y007224D01*
X018608Y007297D01*
X017074Y007724D01*
X017139Y007593D01*
X017182Y007454D01*
X017202Y007309D01*
X017199Y007163D01*
X017173Y007020D01*
X017125Y006882D01*
X017054Y006754D01*
X016965Y006639D01*
X019182Y006639D01*
X019200Y006561D02*
X016881Y006561D01*
X016858Y006539D02*
X016965Y006639D01*
X017026Y006718D02*
X019157Y006718D01*
X019123Y006796D02*
X017077Y006796D01*
X017120Y006875D02*
X019084Y006875D01*
X019031Y006953D02*
X017150Y006953D01*
X017175Y007032D02*
X018972Y007032D01*
X018894Y007110D02*
X017190Y007110D01*
X017200Y007189D02*
X018796Y007189D01*
X018665Y007267D02*
X017202Y007267D01*
X017197Y007346D02*
X018433Y007346D01*
X018151Y007424D02*
X017186Y007424D01*
X017167Y007503D02*
X017869Y007503D01*
X017587Y007581D02*
X017143Y007581D01*
X017106Y007660D02*
X017306Y007660D01*
X016858Y006539D02*
X016737Y006458D01*
X016604Y006397D01*
X016463Y006358D01*
X017804Y005500D01*
X017952Y005444D01*
X018106Y005412D01*
X018263Y005404D01*
X018420Y005422D01*
X018572Y005463D01*
X018716Y005528D01*
X018847Y005614D01*
X018964Y005720D01*
X019063Y005843D01*
X019141Y005980D01*
X019191Y006130D01*
X019216Y006285D01*
X019217Y006325D02*
X016515Y006325D01*
X016618Y006404D02*
X019217Y006404D01*
X019212Y006482D02*
X016773Y006482D01*
X016761Y006168D02*
X019197Y006168D01*
X019177Y006090D02*
X016883Y006090D01*
X017006Y006011D02*
X019151Y006011D01*
X019113Y005933D02*
X017128Y005933D01*
X017251Y005854D02*
X019069Y005854D01*
X019008Y005776D02*
X017374Y005776D01*
X017496Y005697D02*
X018938Y005697D01*
X018852Y005619D02*
X017619Y005619D01*
X017741Y005540D02*
X018734Y005540D01*
X018566Y005462D02*
X017905Y005462D01*
X018541Y008052D02*
X019419Y008052D01*
X019179Y007974D02*
X018809Y007974D01*
X019114Y010512D02*
X017521Y010513D01*
X017619Y010622D01*
X017698Y010744D01*
X017756Y010878D01*
X017722Y010800D02*
X019694Y010800D01*
X019603Y010721D02*
X017683Y010721D01*
X017632Y010643D02*
X019488Y010643D01*
X019319Y010564D02*
X017567Y010564D01*
X019114Y010512D02*
X019268Y010545D01*
X012886Y017001D02*
X012879Y017001D01*
X012846Y017080D02*
X012923Y017080D01*
X012959Y017158D02*
X012806Y017158D01*
X012756Y017237D02*
X012995Y017237D01*
X011075Y019435D02*
X009250Y019435D01*
X009282Y019513D02*
X011043Y019513D01*
X010997Y019592D02*
X009328Y019592D01*
X009380Y019670D02*
X010945Y019670D01*
X010881Y019749D02*
X009444Y019749D01*
X009528Y019827D02*
X010797Y019827D01*
X010694Y019906D02*
X009631Y019906D01*
X009775Y019984D02*
X010550Y019984D01*
X010274Y020063D02*
X010051Y020063D01*
X008575Y019199D02*
X006838Y019199D01*
X006804Y019121D02*
X008614Y019121D01*
X008643Y019042D02*
X006773Y019042D01*
X006754Y018964D02*
X008663Y018964D01*
X008675Y018885D02*
X006737Y018885D01*
X006731Y018807D02*
X008687Y018807D01*
X008698Y018728D02*
X006726Y018728D01*
X006732Y018650D02*
X008710Y018650D01*
X008722Y018571D02*
X006740Y018571D01*
X006759Y018493D02*
X008734Y018493D01*
X008745Y018414D02*
X006781Y018414D01*
X006819Y018336D02*
X008757Y018336D01*
X008769Y018257D02*
X006856Y018257D01*
X006894Y018179D02*
X008780Y018179D01*
X008792Y018100D02*
X006931Y018100D01*
X006969Y018022D02*
X008804Y018022D01*
X008815Y017943D02*
X007006Y017943D01*
X007044Y017865D02*
X008827Y017865D01*
X008839Y017786D02*
X007081Y017786D01*
X007118Y017708D02*
X008850Y017708D01*
X008531Y019278D02*
X006886Y019278D01*
X006941Y019356D02*
X008471Y019356D01*
X008401Y019435D02*
X007007Y019435D01*
X007095Y019513D02*
X008316Y019513D01*
X008200Y019592D02*
X007206Y019592D01*
X007417Y019693D02*
X007572Y019724D01*
X007729Y019731D01*
X007886Y019712D01*
X008037Y019670D01*
X006480Y016844D02*
X004901Y016844D01*
X004971Y016766D02*
X006210Y016766D01*
X006075Y016687D02*
X005041Y016687D01*
X005111Y016609D02*
X005976Y016609D01*
X005903Y016530D02*
X005182Y016530D01*
X005252Y016452D02*
X005845Y016452D01*
X005795Y016373D02*
X005322Y016373D01*
X005392Y016295D02*
X005759Y016295D01*
X005730Y016216D02*
X005463Y016216D01*
X005533Y016138D02*
X005708Y016138D01*
X005695Y016059D02*
X005603Y016059D01*
X005673Y015981D02*
X005687Y015981D01*
X003972Y017080D02*
X003162Y017080D01*
X003457Y017158D02*
X003682Y017158D01*
X002371Y014882D02*
X001826Y014882D01*
X001623Y014803D02*
X002555Y014803D01*
X002678Y014725D02*
X001499Y014725D01*
X001407Y014646D02*
X002800Y014646D01*
X002923Y014568D02*
X001331Y014568D01*
X001268Y014489D02*
X003046Y014489D01*
X003168Y014411D02*
X001222Y014411D01*
X001180Y014332D02*
X003291Y014332D01*
X003413Y014254D02*
X001154Y014254D01*
X001131Y014175D02*
X003536Y014175D01*
X002331Y012213D02*
X000666Y012213D01*
X000588Y012134D02*
X002599Y012134D01*
X002867Y012056D02*
X000521Y012056D01*
X000763Y012291D02*
X002063Y012291D01*
X001795Y012370D02*
X000898Y012370D01*
X001132Y012448D02*
X001527Y012448D01*
X002973Y007660D02*
X003199Y007660D01*
X003165Y007581D02*
X002704Y007581D01*
X002435Y007503D02*
X003142Y007503D01*
X003126Y007424D02*
X002166Y007424D01*
D21*
X002468Y006662D02*
X002273Y006467D01*
X002468Y006662D02*
X003162Y006662D01*
X004162Y007662D01*
X004162Y009162D01*
X006413Y011413D01*
X007562Y011413D01*
X007763Y011412D02*
X007763Y011413D01*
X007763Y011412D02*
X008952Y011412D01*
X008952Y011912D02*
X007763Y011912D01*
X007763Y011912D01*
X007562Y011912D02*
X005912Y011912D01*
X003162Y009162D01*
X001722Y009162D01*
X001524Y008964D01*
X001823Y011162D02*
X001524Y011461D01*
X001823Y011162D02*
X004162Y011162D01*
X005412Y012412D01*
X007562Y012412D01*
X007763Y012412D02*
X007763Y012412D01*
X008952Y012412D01*
X008952Y012912D02*
X007763Y012912D01*
X007763Y012913D01*
X007562Y012913D02*
X004412Y012913D01*
X004162Y013162D01*
X002968Y013162D01*
X002273Y013858D01*
X003721Y016055D02*
X005114Y014662D01*
X005662Y014662D01*
X006913Y013412D01*
X007562Y013412D01*
X007763Y013412D02*
X007763Y013412D01*
X008952Y013412D01*
X008952Y013912D02*
X007764Y013912D01*
X007763Y013914D01*
X007562Y013914D02*
X007411Y013914D01*
X006662Y014662D01*
X006662Y016429D01*
X005539Y017553D01*
X007766Y018552D02*
X008162Y018156D01*
X008162Y016662D01*
X008662Y016162D01*
X008662Y015413D01*
X008662Y015162D02*
X009162Y014662D01*
X009662Y014662D01*
X010912Y013412D01*
X011372Y013412D01*
X011372Y012912D02*
X011912Y012912D01*
X013162Y014162D01*
X013162Y015662D01*
X012162Y016662D01*
X012162Y018155D01*
X012559Y018552D01*
X010162Y018862D02*
X010162Y016862D01*
X011372Y015652D01*
X011372Y013912D01*
X011372Y013862D01*
X012162Y013862D01*
X012162Y013962D01*
X011662Y013962D01*
X011372Y011912D02*
X012631Y011912D01*
X016674Y015955D01*
X018052Y013858D02*
X014562Y012462D01*
X012162Y010062D01*
X010962Y010062D01*
X010912Y010012D01*
X010912Y009372D01*
X011362Y009372D02*
X011412Y009372D01*
X011362Y009372D02*
X011362Y008662D01*
X011362Y009262D01*
X011912Y009372D02*
X012372Y009372D01*
X013162Y010162D01*
X015162Y010162D01*
X016162Y011162D01*
X018162Y011162D01*
X018662Y011662D01*
X016862Y009462D02*
X017162Y009162D01*
X018602Y009162D01*
X018801Y008964D01*
X016862Y009462D02*
X015363Y009462D01*
X015162Y009462D02*
X014562Y009462D01*
X012162Y010862D02*
X012162Y010912D01*
X011372Y010912D01*
X011372Y010412D02*
X010562Y010462D01*
X009912Y010412D02*
X008952Y010412D01*
X009002Y010462D01*
X009562Y010462D01*
X009614Y010471D02*
X009900Y010185D01*
X009362Y009862D02*
X009412Y009372D01*
X008912Y009372D02*
X008912Y008412D01*
X008662Y008162D01*
X008162Y008162D01*
X007662Y007662D01*
X007662Y005763D01*
X007662Y005562D02*
X007662Y004896D01*
X005539Y002772D01*
X004162Y004662D02*
X003944Y004662D01*
X003651Y004370D01*
X004162Y004662D02*
X005662Y006162D01*
X005662Y009662D01*
X006913Y010913D01*
X007562Y010913D01*
X007763Y010912D02*
X007763Y010913D01*
X007763Y010912D02*
X008952Y010912D01*
X008412Y009372D02*
X008362Y009372D01*
X008362Y008662D01*
X008412Y006952D02*
X008412Y006952D01*
X008412Y005763D01*
X008412Y005562D02*
X008412Y003412D01*
X008162Y003162D01*
X008162Y002170D01*
X007766Y001773D01*
X009162Y003662D02*
X009662Y003662D01*
X010162Y003162D01*
X010162Y001444D01*
X012162Y002169D02*
X012559Y001773D01*
X012162Y002169D02*
X012162Y003162D01*
X011162Y004162D01*
X009662Y004162D01*
X009412Y004413D01*
X009412Y005562D01*
X009412Y005763D02*
X009412Y006952D01*
X009412Y006952D01*
X009912Y006952D02*
X009915Y006952D01*
X009915Y005763D01*
X009915Y005562D02*
X009915Y004910D01*
X010162Y004662D01*
X013162Y004662D01*
X014662Y003162D01*
X014662Y002896D01*
X014786Y002772D01*
X015662Y004662D02*
X016381Y004662D01*
X016673Y004370D01*
X015662Y004662D02*
X015162Y005162D01*
X010662Y005162D01*
X010412Y005413D01*
X010412Y005562D01*
X010412Y005763D02*
X010412Y006952D01*
X010412Y006952D01*
X010912Y006952D02*
X010912Y006412D01*
X011162Y006162D01*
X012662Y006162D01*
X012963Y006162D02*
X014162Y006162D01*
X014662Y006662D01*
X017857Y006662D01*
X018052Y006467D01*
X011962Y007002D02*
X011912Y006952D01*
X011412Y006952D02*
X011362Y006952D01*
X011362Y007862D01*
X008912Y006952D02*
X008912Y006952D01*
X008912Y005763D01*
X008912Y005562D02*
X008912Y003913D01*
X009162Y003662D01*
D22*
X011362Y007862D03*
X011362Y008662D03*
X010562Y010462D03*
X009362Y009862D03*
X008362Y008662D03*
X012162Y010862D03*
X014562Y009462D03*
X012162Y013862D03*
D23*
X012412Y012412D02*
X011372Y012412D01*
X010312Y012412D01*
X010162Y012262D01*
X010162Y011062D01*
X009562Y010462D01*
X009912Y010412D02*
X009912Y009372D01*
X009912Y008712D01*
X010362Y008262D01*
X011762Y008262D01*
X011962Y008062D01*
X011962Y007002D01*
X012412Y012412D02*
X013662Y013662D01*
X013862Y016029D01*
X014786Y017553D01*
M02*
