G75*
G70*
%OFA0B0*%
%FSLAX24Y24*%
%IPPOS*%
%LPD*%
%AMOC8*
5,1,8,0,0,1.08239X$1,22.5*
%
%ADD10C,0.0040*%
%ADD11C,0.0020*%
%ADD12C,0.0060*%
%ADD13R,0.0118X0.0118*%
D10*
X005059Y005382D02*
X004982Y005459D01*
X004982Y005536D01*
X005059Y005613D01*
X005213Y005613D01*
X005289Y005536D01*
X005289Y005459D01*
X005213Y005382D01*
X005059Y005382D01*
X004982Y005459D01*
X004982Y005536D01*
X005059Y005613D01*
X004982Y005689D01*
X004982Y005766D01*
X005059Y005843D01*
X005213Y005843D01*
X005289Y005766D01*
X005289Y005689D01*
X005213Y005613D01*
X005059Y005613D01*
X004982Y005689D01*
X004982Y005766D01*
X005059Y005843D01*
X005213Y005843D01*
X005289Y005766D01*
X005289Y005689D01*
X005213Y005613D01*
X005289Y005536D01*
X005289Y005459D01*
X005213Y005382D01*
X005059Y005382D01*
X006382Y004566D02*
X006382Y004489D01*
X006459Y004413D01*
X006689Y004413D01*
X006689Y004566D02*
X006689Y004259D01*
X006613Y004182D01*
X006459Y004182D01*
X006382Y004259D01*
X006382Y004566D02*
X006459Y004643D01*
X006613Y004643D01*
X006689Y004566D01*
X007882Y003689D02*
X008036Y003843D01*
X008036Y003382D01*
X008189Y003382D02*
X007882Y003382D01*
X008343Y003459D02*
X008420Y003382D01*
X008573Y003382D01*
X008650Y003459D01*
X008650Y003766D01*
X008343Y003459D01*
X008343Y003766D01*
X008420Y003843D01*
X008573Y003843D01*
X008650Y003766D01*
X009782Y003489D02*
X009936Y003643D01*
X009936Y003182D01*
X010089Y003182D02*
X009782Y003182D01*
X010243Y003182D02*
X010550Y003182D01*
X010396Y003182D02*
X010396Y003643D01*
X010243Y003489D01*
X011582Y003382D02*
X011889Y003382D01*
X011582Y003382D01*
X011736Y003382D02*
X011736Y003843D01*
X011582Y003689D01*
X011736Y003843D01*
X011736Y003382D01*
X012043Y003382D02*
X012350Y003689D01*
X012350Y003766D01*
X012273Y003843D01*
X012120Y003843D01*
X012043Y003766D01*
X012120Y003843D01*
X012273Y003843D01*
X012350Y003766D01*
X012350Y003689D01*
X012043Y003382D01*
X012350Y003382D01*
X012043Y003382D01*
X013282Y004182D02*
X013589Y004182D01*
X013436Y004182D02*
X013436Y004643D01*
X013282Y004489D01*
X013743Y004566D02*
X013820Y004643D01*
X013973Y004643D01*
X014050Y004566D01*
X014050Y004489D01*
X013973Y004413D01*
X014050Y004336D01*
X014050Y004259D01*
X013973Y004182D01*
X013820Y004182D01*
X013743Y004259D01*
X013896Y004413D02*
X013973Y004413D01*
X014782Y005382D02*
X015089Y005382D01*
X014936Y005382D02*
X014936Y005843D01*
X014782Y005689D01*
X015243Y005613D02*
X015550Y005613D01*
X015473Y005843D02*
X015473Y005382D01*
X015243Y005613D02*
X015473Y005843D01*
X015782Y006982D02*
X016089Y006982D01*
X015936Y006982D02*
X015936Y007443D01*
X015782Y007289D01*
X016243Y007213D02*
X016396Y007289D01*
X016473Y007289D01*
X016550Y007213D01*
X016550Y007059D01*
X016473Y006982D01*
X016320Y006982D01*
X016243Y007059D01*
X016243Y007213D02*
X016243Y007443D01*
X016550Y007443D01*
X016536Y008982D02*
X016536Y009443D01*
X016382Y009289D01*
X016382Y008982D02*
X016689Y008982D01*
X016843Y009059D02*
X016920Y008982D01*
X017073Y008982D01*
X017150Y009059D01*
X017150Y009136D01*
X017073Y009213D01*
X016843Y009213D01*
X016843Y009059D01*
X016843Y009213D02*
X016996Y009366D01*
X017150Y009443D01*
X017217Y010882D02*
X017217Y011343D01*
X017064Y011343D02*
X017371Y011343D01*
X016910Y011343D02*
X016910Y010959D01*
X016833Y010882D01*
X016680Y010882D01*
X016603Y010959D01*
X016603Y011343D01*
X016450Y011266D02*
X016373Y011343D01*
X016220Y011343D01*
X016143Y011266D01*
X016143Y010959D01*
X016220Y010882D01*
X016373Y010882D01*
X016450Y010959D01*
X016450Y011266D01*
X015989Y011266D02*
X015913Y011343D01*
X015759Y011343D01*
X015682Y011266D01*
X015682Y011189D01*
X015759Y011113D01*
X015913Y011113D01*
X015989Y011036D01*
X015989Y010959D01*
X015913Y010882D01*
X015759Y010882D01*
X015682Y010959D01*
X015780Y012782D02*
X015933Y012782D01*
X016010Y012859D01*
X016164Y012782D02*
X016471Y012782D01*
X016624Y012782D02*
X016624Y013243D01*
X016701Y013013D02*
X016931Y012782D01*
X016624Y012936D02*
X016931Y013243D01*
X016164Y013243D02*
X016164Y012782D01*
X015780Y012782D02*
X015703Y012859D01*
X015703Y013166D01*
X015780Y013243D01*
X015933Y013243D01*
X016010Y013166D01*
X015550Y013166D02*
X015550Y013013D01*
X015473Y012936D01*
X015243Y012936D01*
X015396Y012936D02*
X015550Y012782D01*
X015243Y012782D02*
X015243Y013243D01*
X015473Y013243D01*
X015550Y013166D01*
X015089Y013166D02*
X015013Y013243D01*
X014859Y013243D01*
X014782Y013166D01*
X014782Y013089D01*
X014859Y013013D01*
X015013Y013013D01*
X015089Y012936D01*
X015089Y012859D01*
X015013Y012782D01*
X014859Y012782D01*
X014782Y012859D01*
X014820Y014382D02*
X014973Y014382D01*
X015050Y014459D01*
X015203Y014382D02*
X015510Y014382D01*
X015664Y014382D02*
X015664Y014843D01*
X015664Y014536D02*
X015971Y014843D01*
X015740Y014613D02*
X015971Y014382D01*
X015203Y014382D02*
X015203Y014843D01*
X015050Y014766D02*
X014973Y014843D01*
X014820Y014843D01*
X014743Y014766D01*
X014743Y014459D01*
X014820Y014382D01*
X014589Y014382D02*
X014436Y014536D01*
X014513Y014536D02*
X014282Y014536D01*
X014282Y014382D02*
X014282Y014843D01*
X014513Y014843D01*
X014589Y014766D01*
X014589Y014613D01*
X014513Y014536D01*
X014133Y015682D02*
X013903Y015682D01*
X013903Y016143D01*
X014133Y016143D01*
X014210Y016066D01*
X014210Y015759D01*
X014133Y015682D01*
X013750Y015682D02*
X013750Y016143D01*
X013443Y016143D02*
X013750Y015682D01*
X013443Y015682D02*
X013443Y016143D01*
X013289Y016066D02*
X013213Y016143D01*
X013059Y016143D01*
X012982Y016066D01*
X012982Y015759D01*
X013059Y015682D01*
X013213Y015682D01*
X013289Y015759D01*
X013289Y015913D01*
X013136Y015913D01*
X012610Y016382D02*
X012457Y016536D01*
X012533Y016536D02*
X012303Y016536D01*
X012303Y016382D02*
X012303Y016843D01*
X012533Y016843D01*
X012610Y016766D01*
X012610Y016613D01*
X012533Y016536D01*
X012150Y016382D02*
X011843Y016382D01*
X011843Y016843D01*
X012150Y016843D01*
X011996Y016613D02*
X011843Y016613D01*
X011689Y016536D02*
X011689Y016459D01*
X011613Y016382D01*
X011459Y016382D01*
X011382Y016459D01*
X011459Y016613D02*
X011613Y016613D01*
X011689Y016536D01*
X011689Y016766D02*
X011613Y016843D01*
X011459Y016843D01*
X011382Y016766D01*
X011382Y016689D01*
X011459Y016613D01*
X010757Y016682D02*
X010757Y016913D01*
X010680Y016989D01*
X010450Y016989D01*
X010450Y016682D01*
X010296Y016682D02*
X010143Y016682D01*
X010220Y016682D02*
X010220Y016989D01*
X010143Y016989D01*
X010220Y017143D02*
X010220Y017220D01*
X009989Y017143D02*
X009989Y016836D01*
X009836Y016682D01*
X009682Y016836D01*
X009682Y017143D01*
X008336Y016943D02*
X008336Y016482D01*
X008489Y016482D02*
X008182Y016482D01*
X008182Y016789D02*
X008336Y016943D01*
X006789Y016066D02*
X006789Y015989D01*
X006482Y015682D01*
X006789Y015682D01*
X006789Y016066D02*
X006713Y016143D01*
X006559Y016143D01*
X006482Y016066D01*
X005313Y014943D02*
X005159Y014943D01*
X005082Y014866D01*
X005236Y014713D02*
X005313Y014713D01*
X005389Y014636D01*
X005389Y014559D01*
X005313Y014482D01*
X005159Y014482D01*
X005082Y014559D01*
X005313Y014713D02*
X005389Y014789D01*
X005389Y014866D01*
X005313Y014943D01*
X004113Y013243D02*
X003882Y013013D01*
X004189Y013013D01*
X004113Y013243D02*
X004113Y012782D01*
X003589Y011343D02*
X003282Y011343D01*
X003282Y011113D01*
X003436Y011189D01*
X003513Y011189D01*
X003589Y011113D01*
X003589Y010959D01*
X003513Y010882D01*
X003359Y010882D01*
X003282Y010959D01*
X003589Y009443D02*
X003436Y009366D01*
X003282Y009213D01*
X003513Y009213D01*
X003589Y009136D01*
X003589Y009059D01*
X003513Y008982D01*
X003359Y008982D01*
X003282Y009059D01*
X003282Y009213D01*
X003882Y007443D02*
X004189Y007443D01*
X004189Y007366D01*
X003882Y007059D01*
X003882Y006982D01*
D11*
X008162Y007532D02*
X012162Y007532D01*
X009532Y010162D02*
X009532Y014162D01*
X009566Y014053D02*
X009472Y013959D01*
X009566Y014053D02*
X009566Y013772D01*
X009659Y013772D02*
X009472Y013772D01*
X008552Y007759D02*
X008552Y007572D01*
X008552Y007666D02*
X008272Y007666D01*
X008366Y007572D01*
D12*
X008312Y007392D02*
X008289Y007394D01*
X008266Y007399D01*
X008244Y007408D01*
X008224Y007421D01*
X008206Y007436D01*
X008191Y007454D01*
X008178Y007474D01*
X008169Y007496D01*
X008164Y007519D01*
X008162Y007542D01*
X008162Y007962D01*
X008162Y008362D01*
X008162Y008782D01*
X008164Y008805D01*
X008169Y008828D01*
X008178Y008850D01*
X008191Y008870D01*
X008206Y008888D01*
X008224Y008903D01*
X008244Y008916D01*
X008266Y008925D01*
X008289Y008930D01*
X008312Y008932D01*
X008162Y008362D02*
X008189Y008360D01*
X008216Y008355D01*
X008242Y008345D01*
X008266Y008333D01*
X008288Y008317D01*
X008308Y008299D01*
X008325Y008277D01*
X008340Y008254D01*
X008350Y008229D01*
X008358Y008203D01*
X008362Y008176D01*
X008362Y008148D01*
X008358Y008121D01*
X008350Y008095D01*
X008340Y008070D01*
X008325Y008047D01*
X008308Y008025D01*
X008288Y008007D01*
X008266Y007991D01*
X008242Y007979D01*
X008216Y007969D01*
X008189Y007964D01*
X008162Y007962D01*
X009542Y010162D02*
X010782Y010162D01*
X010805Y010164D01*
X010828Y010169D01*
X010850Y010178D01*
X010870Y010191D01*
X010888Y010206D01*
X010903Y010224D01*
X010916Y010244D01*
X010925Y010266D01*
X010930Y010289D01*
X010932Y010312D01*
X009542Y010162D02*
X009519Y010164D01*
X009496Y010169D01*
X009474Y010178D01*
X009454Y010191D01*
X009436Y010206D01*
X009421Y010224D01*
X009408Y010244D01*
X009399Y010266D01*
X009394Y010289D01*
X009392Y010312D01*
X012012Y008932D02*
X012035Y008930D01*
X012058Y008925D01*
X012080Y008916D01*
X012100Y008903D01*
X012118Y008888D01*
X012133Y008870D01*
X012146Y008850D01*
X012155Y008828D01*
X012160Y008805D01*
X012162Y008782D01*
X012162Y007542D01*
X012160Y007519D01*
X012155Y007496D01*
X012146Y007474D01*
X012133Y007454D01*
X012118Y007436D01*
X012100Y007421D01*
X012080Y007408D01*
X012058Y007399D01*
X012035Y007394D01*
X012012Y007392D01*
X010932Y014012D02*
X010930Y014035D01*
X010925Y014058D01*
X010916Y014080D01*
X010903Y014100D01*
X010888Y014118D01*
X010870Y014133D01*
X010850Y014146D01*
X010828Y014155D01*
X010805Y014160D01*
X010782Y014162D01*
X010362Y014162D01*
X009962Y014162D01*
X009542Y014162D01*
X009519Y014160D01*
X009496Y014155D01*
X009474Y014146D01*
X009454Y014133D01*
X009436Y014118D01*
X009421Y014100D01*
X009408Y014080D01*
X009399Y014058D01*
X009394Y014035D01*
X009392Y014012D01*
X009962Y014162D02*
X009964Y014135D01*
X009969Y014108D01*
X009979Y014082D01*
X009991Y014058D01*
X010007Y014036D01*
X010025Y014016D01*
X010047Y013999D01*
X010070Y013984D01*
X010095Y013974D01*
X010121Y013966D01*
X010148Y013962D01*
X010176Y013962D01*
X010203Y013966D01*
X010229Y013974D01*
X010254Y013984D01*
X010277Y013999D01*
X010299Y014016D01*
X010317Y014036D01*
X010333Y014058D01*
X010345Y014082D01*
X010355Y014108D01*
X010360Y014135D01*
X010362Y014162D01*
D13*
X008662Y015312D03*
X007662Y013914D03*
X007662Y013412D03*
X007662Y012913D03*
X007662Y012412D03*
X007662Y011912D03*
X007662Y011413D03*
X007662Y010913D03*
X007662Y005662D03*
X008412Y005662D03*
X008912Y005662D03*
X009412Y005662D03*
X009915Y005662D03*
X010412Y005662D03*
X012862Y006162D03*
X015262Y009462D03*
M02*
