%
M48
M72
T01C0.0236
T02C0.1100
%
T01
X8362Y8662
X9362Y9862
X10562Y10462
X12162Y10862
X11362Y8662
X11362Y7862
X14562Y9462
X12162Y13862
T02
X3651Y4370
X5539Y2772
X7766Y1773
X10162Y1444
X12559Y1773
X14786Y2772
X16673Y4370
X18052Y6467
X18801Y8964
X18801Y11461
X18052Y13858
X16674Y15955
X14786Y17553
X12559Y18552
X10162Y18881
X7766Y18552
X5539Y17553
X3721Y16055
X2273Y13858
X1524Y11461
X1524Y8964
X2273Y6467
M30
