%
M48
M72
T01C0.0236
T02C0.1100
%
T01
X8362Y8662
X9362Y9862
X10562Y10462
X12162Y10862
X11362Y8662
X11362Y7862
X14562Y9462
X12162Y13862
T02
X3621Y4370
X2243Y6467
X1507Y8964
X1524Y11461
X2253Y13898
X3711Y16065
X5539Y17583
X7766Y18571
X10162Y18901
X12559Y18571
X14786Y17583
X16699Y15965
X18082Y13858
X18801Y11461
X18821Y8964
X18072Y6427
X16673Y4370
X14786Y2742
X12559Y1754
X10162Y1424
X7766Y1754
X5539Y2742
M30
