%
M48
M72
T01C0.0236
T02C0.1100
%
T01
X8350Y8650
X9350Y9850
X10550Y10450
X12150Y10850
X11350Y8650
X11350Y7850
X14550Y9450
X12150Y13850
T02
X3609Y4358
X2231Y6455
X1495Y8952
X1512Y11448
X2241Y13885
X3699Y16052
X5526Y17570
X7753Y18559
X10150Y18888
X12547Y18559
X14774Y17570
X16686Y15952
X18069Y13845
X18788Y11448
X18808Y8952
X18059Y6415
X16691Y4358
X14774Y2730
X12547Y1741
X10150Y1412
X7753Y1741
X5526Y2730
M30
